<?xml version="1.0" standalone="no"?>
<!DOCTYPE svg PUBLIC "-//W3C//DTD SVG 20010904//EN"
 "http://www.w3.org/TR/2001/REC-SVG-20010904/DTD/svg10.dtd">
<svg version="1.0" xmlns="http://www.w3.org/2000/svg"
 width="256.000000pt" height="256.000000pt" viewBox="0 0 256.000000 256.000000"
 preserveAspectRatio="xMidYMid meet">
<metadata>
Created by potrace 1.14, written by Peter Selinger 2001-2017
</metadata>
<g transform="translate(0.000000,256.000000) scale(0.100000,-0.100000)"
fill="#000000" stroke="none">
<path d="M1005 2118 c-31 -18 -44 -40 -45 -73 0 -25 41 -70 305 -335 l305
-305 57 57 58 58 -145 145 -145 145 103 103 c88 88 102 107 102 135 0 44 -38
82 -81 82 -27 0 -48 -16 -135 -102 l-104 -102 -104 102 c-106 105 -126 116
-171 90z"/>
<path d="M895 1540 l-140 -140 -95 95 c-52 51 -107 99 -122 104 -34 13 -70 1
-92 -31 -32 -45 -21 -65 84 -173 55 -55 100 -105 100 -110 0 -5 -45 -55 -100
-110 -108 -110 -117 -131 -80 -178 26 -32 63 -41 98 -23 15 8 157 145 317 305
l290 291 -55 55 c-30 30 -57 55 -60 55 -3 0 -68 -63 -145 -140z"/>
<path d="M1710 1295 l-305 -305 57 -57 58 -58 145 145 145 145 103 -103 c88
-88 107 -102 135 -102 42 0 82 41 82 83 0 24 -18 49 -102 133 l-102 104 102
104 c67 67 102 111 102 125 0 30 -25 77 -45 85 -54 20 -61 15 -375 -299z"/>
<path d="M930 1095 l-55 -55 145 -145 144 -145 -102 -103 c-64 -65 -102 -112
-102 -125 0 -34 20 -69 47 -81 48 -22 64 -13 169 91 l104 102 104 -102 c67
-67 111 -102 125 -102 30 0 77 25 85 45 20 54 14 61 -296 372 -167 167 -305
303 -308 303 -3 0 -30 -25 -60 -55z"/>
</g>
</svg>
